<?xml version="1.0" encoding="utf-8"?>
<svg version="1.1" id="Layer_1" x="0px" y="0px" enable-background="new 0 0 496 496" viewBox="0 0 500 500" xmlns="http://www.w3.org/2000/svg">
  <defs/>
  <path opacity="1.000000" stroke="none" d="M 500 188.044 C 498.305 186.656 498.354 184.173 497.701 181.953 C 477.15 111.914 431.268 69.037 359.882 53.717 C 349.058 51.395 337.966 50.719 326.86 50.727 C 277.472 50.764 228.083 50.729 178.695 50.768 C 92.532 50.834 20.729 108.063 5.073 192.699 C -6.725 256.484 11.526 312.256 59.66 357.102 C 71.167 367.823 84.183 376.418 98.179 383.516 C 100.916 384.904 102.142 386.601 102.133 389.738 C 102.023 426.191 102.019 462.643 101.892 499.559 C 67.871 500.024 33.949 500.024 0 500.024 C 0 333.446 0 166.866 0 0 C 107.193 0 446.098 0 500 0 C 500 62.524 500 125.048 500 188.044" style="fill: rgb(215, 95, 95);"/>
  <path opacity="1.000000" stroke="none" d="M 104 499.986 C 115.244 489.814 126.921 479.596 138.69 469.483 C 163.785 447.912 188.967 426.439 214.008 404.812 C 216.875 402.328 219.705 401.188 223.52 401.201 C 257.802 401.327 292.083 401.313 326.361 401.271 C 363.913 401.225 398.282 390.736 428.956 369.021 C 463.77 344.381 486.463 311.15 497.687 270.038 C 498.221 268.097 498.873 266.196 499.735 264 C 500 342.374 500 421.025 500 499.986 C 466.179 499.986 172.773 499.986 104 499.986 Z" style="fill: rgb(215, 95, 94);"/>
  <path fill="#000000" opacity="1.000000" stroke="none" d="M 208.296 295.026 C 230.133 245.305 251.844 195.944 273.449 146.536 C 275.683 141.427 279.271 139.168 284.702 139.218 C 292.861 139.294 301.022 139.203 309.182 139.242 C 316.962 139.278 318.911 142.109 315.796 149.174 C 300.822 183.132 285.777 217.059 270.76 250.998 C 262.073 270.633 253.186 290.182 244.823 309.954 C 241.926 316.804 237.513 319.728 230.278 319.487 C 222.626 319.233 214.953 319.585 207.302 319.311 C 200.951 319.083 199.249 316.331 201.584 310.487 C 203.621 305.39 205.943 300.407 208.296 295.026 Z"/>
  <path fill="#000000" opacity="1.000000" stroke="none" d="M 158.121 246.26 C 165.066 250.602 171.651 254.837 178.348 258.886 C 182.734 261.538 185.023 265.252 185.025 270.36 C 185.027 279.855 185.123 289.352 184.961 298.845 C 184.84 305.911 181.235 307.732 175.26 303.899 C 147.786 286.274 120.622 268.139 92.715 251.229 C 82.443 245.005 82.519 227.859 92.678 221.747 C 120.494 205.013 147.5 186.934 174.815 169.369 C 177.107 167.895 179.45 166.312 182.197 167.747 C 184.961 169.192 185.015 172.069 185.025 174.76 C 185.059 183.755 184.837 192.756 185.109 201.743 C 185.28 207.39 183.054 211.163 178.318 214.059 C 168.233 220.224 158.303 226.641 148.304 232.947 C 146.906 233.828 145.313 234.47 144.234 236.937 C 148.141 240.592 153.236 242.987 158.121 246.26 Z"/>
  <path fill="#000000" opacity="1.000000" stroke="none" d="M 429.68 244.099 C 428.312 247.407 425.921 249.214 423.384 250.847 C 395.39 268.861 367.384 286.856 339.393 304.875 C 337.334 306.201 335.234 307.144 332.875 305.862 C 330.615 304.635 330.618 302.397 330.619 300.179 C 330.625 290.029 330.693 279.878 330.537 269.731 C 330.471 265.404 332.334 262.552 335.887 260.329 C 346.048 253.974 356.131 247.496 366.242 241.062 C 367.771 240.089 369.518 239.377 370.49 237.547 C 370.215 235.036 367.981 234.272 366.241 233.166 C 356.547 227.004 346.875 220.803 337.057 214.845 C 332.649 212.17 330.428 208.833 330.602 203.48 C 330.904 194.166 330.656 184.835 330.714 175.511 C 330.731 172.924 330.022 169.866 332.996 168.374 C 335.952 166.891 338.427 168.684 340.833 170.23 C 360.859 183.097 380.89 195.956 400.916 208.825 C 407.358 212.965 413.785 217.127 420.22 221.278 C 430.64 227.999 432.019 231.215 429.68 244.099 Z"/>
</svg>